<?xml version="1.0" encoding="UTF-8" standalone="no"?>
<!DOCTYPE svg PUBLIC "-//W3C//DTD SVG 1.1//EN" "http://www.w3.org/Graphics/SVG/1.1/DTD/svg11.dtd">
<svg viewBox="0 0 120 120" overflow="visible" version="1.1" xmlns="http://www.w3.org/2000/svg">
  <path d="M49.74303,73.73524 L23.76622,99.71204 L36.45041,99.71204 C37.66066,99.58935 39.03261,100.9613 38.90992,102.1715 C39.03261,103.3818 37.66066,104.7537 36.45041,104.6311 L15.36895,104.6311 L15.36895,83.54959 C15.24625,82.33935 16.61821,80.96739 17.82845,81.09008 C19.0387,80.96739 20.41065,82.33935 20.28796,83.54959 L20.28796,96.23378 L46.26476,70.25697 C47.03378,69.31445 48.97401,69.31445 49.74303,70.25697 C50.68556,71.02599 50.68556,72.96622 49.74303,73.73524 z" stroke="Black" stroke-width="0" fill="#000000" fill-opacity="1" />
  <path d="M83.54959,20.28796 C82.33935,20.41065 80.96739,19.0387 81.09008,17.82845 C80.96739,16.61821 82.33935,15.24625 83.54959,15.36895 L104.6311,15.36895 L104.6311,36.45041 C104.7537,37.66066 103.3818,39.03261 102.1715,38.90992 C100.9613,39.03261 99.58935,37.66066 99.71204,36.45041 L99.71204,23.76622 L73.73524,49.74303 C72.96622,50.68556 71.02599,50.68556 70.25697,49.74303 C69.31445,48.97401 69.31445,47.03378 70.25697,46.26476 L96.23378,20.28796 z" stroke="Black" stroke-width="0" fill="#000000" fill-opacity="1" />
</svg>