<svg width="720pt" height="720pt" viewBox="0 0 720 720" overflow="visible" version="1.1" xmlns="http://www.w3.org/2000/svg">
  <path d="M488.3861,206.9954 C470.4124,191.8746 448.1518,178.7915 423.0517,170.4799 C397.9516,162.1682 370.0121,158.6278 342.5921,161.0267 C315.1721,163.4256 288.2718,171.7639 264.9963,184.3079 C241.7209,196.8519 222.0703,213.6017 206.9954,231.6139 C191.8746,249.5876 178.7915,271.8482 170.4799,296.9483 C162.1682,322.0484 158.6278,349.9879 161.0267,377.4079 C163.4256,404.8279 171.7639,431.7282 184.3079,455.0037 C196.8519,478.2791 213.6017,497.9297 231.6139,513.0046 C249.5876,528.1254 271.8482,541.2084 296.9483,549.5201 C322.0484,557.8318 349.9879,561.3722 377.4079,558.9733 C404.8279,556.5743 431.7282,548.2361 455.0037,535.6921 C478.2791,523.1481 497.9297,506.3983 513.0046,488.3861 C528.1254,470.4124 541.2084,448.1518 549.5201,423.0517 C557.8318,397.9516 561.3722,370.0121 558.9733,342.5921 C556.5743,315.1721 548.2361,288.2718 535.6921,264.9963 C523.1481,241.7209 506.3983,222.0703 488.3861,206.9954 z" stroke="#7F7F7F" stroke-width="11.28" stroke-opacity="0.384313725490196" fill="#808080" />
  <path d="M444.2318,552.7357 C380.6152,570.5737 307.1995,571.8352 238.7119,554.0834 C170.2244,536.3316 106.665,499.5666 59.72324,453.0721" stroke="#000000" stroke-width="11.28" fill-opacity="0" />
  <path d="M395.6248,717.7506 C432.0999,664.1366 456.4571,596.6516 462.0955,527.6374 C467.7339,458.6231 454.6536,388.0796 427.3645,329.256 C400.8088,270.0978 356.0894,213.9938 300.2599,173.0323 C244.4306,132.0709 177.4912,106.2521 113.09,98.67624" stroke="#000000" stroke-width="11.28" fill-opacity="0" />
  <path d="M480.4151,698.7548 C498.6546,637.9236 501.8631,568.0615 487.6003,501.9698 C473.3375,435.878 441.6035,373.5566 399.9005,325.6611 C358.753,277.2875 301.8553,236.6223 238.6263,212.6715 C175.3973,188.7208 105.8369,181.4846 42.9671,190.4572" stroke="#000000" stroke-width="11.28" fill-opacity="0" />
  <path d="M429.4496,583.67 C363.0099,583.2903 291.622,564.033 230.4026,527.6608 C169.1831,491.2886 118.1321,437.8016 86.02658,379.6328" stroke="#000000" stroke-width="11.28" fill-opacity="0" />
  <path d="M168.4465,664.2399 C236.7088,657.3046 308.539,629.5837 367.3148,584.7492 C426.0907,539.9147 471.8122,477.9667 496.5444,413.9654 C522.2497,350.3488 531.2332,273.881 518.9898,200.9782 C506.7464,128.0753 473.2761,58.73728 428.1995,7.007845" stroke="#000000" stroke-width="11.28" fill-opacity="0" />
  <path d="M456.2384,500.1059 C416.6046,544.506 363.7005,581.73 305.1937,604.6551 C246.6868,627.5802 182.5771,636.2065 123.3299,630.5516" stroke="#000000" stroke-width="11.28" fill-opacity="0" />
  <path d="M452.512,524.6199 C397.9789,558.5685 330.4041,580.0919 261.9771,583.2709 C193.55,586.4498 124.2707,571.2841 66.82507,542.5376" stroke="#000000" stroke-width="11.28" fill-opacity="0" />
  <path d="M306.5247,715.5208 C359.5463,675.5631 405.2706,617.5426 432.653,551.874 C460.0354,486.2053 469.076,412.8885 460.1485,347.0994 C452.1119,281.1955 424.7862,212.5632 381.6556,155.9777 C338.525,99.39215 279.5896,54.8534 218.1726,29.63715" stroke="#000000" stroke-width="11.28" fill-opacity="0" />
  <path d="M214.6059,688.8088 C279.674,669.3091 344.2724,629.233 393.2987,575.0634 C442.325,520.8938 475.7793,452.6306 488.7123,385.9461 C502.6243,319.4589 498.2293,243.566 474.0182,174.633 C449.8072,105.7001 405.78,43.72706 353.3481,0.5415424" stroke="#000000" stroke-width="11.28" fill-opacity="0" />
  <path d="M456.8984,489.4977 C426.2252,535.6337 383.5982,577.1218 334.1473,607.5026 C284.6965,637.8835 228.4217,657.157 173.4035,663.6667" stroke="#FFFFFF" stroke-width="11.28" fill-opacity="0" />
  <path d="M520.6274,681.6418 C529.7313,619.3309 522.9512,550.4436 499.7371,487.6297 C476.523,424.8158 436.875,368.0753 389.4373,326.6605 C342.4666,284.7168 281.2529,252.4008 216.0477,237.1443 C150.8424,221.8879 81.64568,223.691 20.94192,240.4415" stroke="#FFFFFF" stroke-width="11.28" fill-opacity="0" />
  <path d="M454.8395,511.8662 C407.125,552.0093 345.8004,582.3021 280.9767,595.8376 C216.1531,609.3731 147.8304,606.1514 88.03899,588.4561" stroke="#FFFFFF" stroke-width="11.28" fill-opacity="0" />
  <path d="M449.0522,538.2705 C389.186,564.6245 317.609,576.2696 248.0665,568.8487 C178.524,561.4278 111.0161,534.9408 58.05919,496.5474" stroke="#FFFFFF" stroke-width="11.28" fill-opacity="0" />
  <path d="M437.7933,567.916 C372.0089,576.7291 298.734,567.5737 233.1297,540.1012 C167.5253,512.6287 109.5914,466.8392 69.71656,413.7801" stroke="#FFFFFF" stroke-width="11.28" fill-opacity="0" />
  <path d="M260.7951,705.5619 C320.6168,675.0003 376.3174,624.8297 414.7118,563.7757 C453.1062,502.7218 474.1943,430.7846 475.8235,363.6282 C478.4007,296.5015 461.8565,223.3855 427.3586,160.0482 C392.8608,96.71087 340.4095,43.1523 282.618,8.906497" stroke="#FFFFFF" stroke-width="11.28" fill-opacity="0" />
  <path d="M168.4465,664.2399 C236.7088,657.3046 308.539,629.5837 367.3148,584.7492 C426.0907,539.9147 471.8122,477.9667 496.5444,413.9654 C522.2497,350.3488 531.2332,273.881 518.9898,200.9782 C506.7464,128.0753 473.2761,58.73728 428.1995,7.007845" stroke="#FFFFFF" stroke-width="11.28" fill-opacity="0" />
  <path d="M418.8889,599.7901 C353.1923,590.3199 285.1916,561.517 229.5698,517.1832 C173.9481,472.8493 130.7053,412.9847 106.8223,351.0547" stroke="#FFFFFF" stroke-width="11.28" fill-opacity="0" />
  <path d="M351.5265,719.4201 C396.6384,671.7863 431.7881,608.0498 448.1588,539.8083 C464.5296,471.5669 462.1215,398.8206 443.5299,335.9045 C425.7553,272.7528 389.048,209.9006 338.8463,160.863 C288.6446,111.8254 224.9486,76.60246 161.3973,60.31416" stroke="#FFFFFF" stroke-width="11.28" fill-opacity="0" />
  <path d="M438.6555,710.8104 C466.0866,652.8346 479.7249,583.3749 475.1077,515.1507 C470.4905,446.9265 447.6179,379.9378 412.6254,326.1866 C378.278,272.0209 326.8535,223.3776 266.7186,190.8252 C206.5837,158.2728 137.7384,141.8114 73.60629,142.6678" stroke="#FFFFFF" stroke-width="11.28" fill-opacity="0" />
  <path d="M417.8849,583.358 L363.7676,587.424" stroke="#000000" stroke-width="11.28" fill-opacity="0" />
  <path d="M453.6516,512.8508 L419.6072,542.7571" stroke="#000000" stroke-width="11.28" fill-opacity="0" />
  <path d="M456.8673,489.5442 L432.0363,524.739" stroke="#000000" stroke-width="11.28" fill-opacity="0" />
  <path d="M448.4648,538.524 L405.169,561.3334" stroke="#000000" stroke-width="11.28" fill-opacity="0" />
  <path d="M440.4084,531.764 L401.688,555.3043" stroke="#000000" stroke-width="11.28" fill-opacity="0" />
  <path d="M447.6225,509.3699 L417.0571,539.7181" stroke="#000000" stroke-width="11.28" fill-opacity="0" />
  <path d="M430.8423,556.1465 L384.2435,571.0912" stroke="#000000" stroke-width="11.28" fill-opacity="0" />
  <path d="M444.2612,520.3687 L409.5834,547.5109" stroke="#FFFFFF" stroke-width="11.28" fill-opacity="0" />
  <path d="M424.8719,569.3451 L374.457,579.1718" stroke="#FFFFFF" stroke-width="11.28" fill-opacity="0" />
  <path d="M435.9735,543.6553 L393.2777,563.1489" stroke="#FFFFFF" stroke-width="11.28" fill-opacity="0" />
  <path d="M409.6623,598.2858 L173.4035,663.6667" stroke="#FFFFFF" stroke-width="11.28" fill-opacity="0" />
  <path d="M451.3489,525.3315 L412.6869,551.9431" stroke="#FFFFFF" stroke-width="11.28" fill-opacity="0" />
  <path d="M450.5634,498.6729 L424.1893,531.8712" stroke="#FFFFFF" stroke-width="11.28" fill-opacity="0" />
  <path d="M455.4671,500.9596 L426.0293,533.7112" stroke="#FFFFFF" stroke-width="11.28" fill-opacity="0" />
</svg>