<?xml version="1.0" encoding="UTF-8" standalone="no"?>
<!DOCTYPE svg PUBLIC "-//W3C//DTD SVG 1.1//EN" "http://www.w3.org/Graphics/SVG/1.1/DTD/svg11.dtd">
<svg width="720pt" height="720pt" viewBox="0 0 720 720" overflow="visible" version="1.1" xmlns="http://www.w3.org/2000/svg">
  <path d="M359.9468,64.02503 L360.9849,64.86115 C413.0627,104.2552 432.9856,200.946 410.7671,305.7277 C404.438,412.1406 338.5986,543.6271 247.0546,632.6743 C336.1998,548.0368 386.2091,405.1942 364.3002,297.7832 C357.2729,207.9327 307.6851,124.6632 236.9581,91.73035 C267.5088,77.67666 300.981,68.83363 334.4866,65.96432 L340.6844,65.49224 z" stroke="Black" stroke-width="0" fill="#FD00A8" fill-opacity="1" />
  <path d="M651.2106,311.9967 C653.9028,328.322 655.1417,344.4219 655.1405,360 C656.9706,428.8435 625.7277,511.664 568.6959,568.6959 C511.664,625.7277 428.8435,656.9706 360,655.1405 C344.4219,655.1417 328.322,653.9028 311.9967,651.2106 z" stroke="Black" stroke-width="0" fill="#00FF00" fill-opacity="1" />
  <path d="M176.3684,128.943 C194.9183,114.1886 215.41,101.6032 236.9581,91.73035 C307.6851,124.6632 357.2729,207.9327 364.3002,297.7832 C386.2091,405.1942 336.1998,548.0368 247.0546,632.6743 C288.5741,591.9426 320.9527,533.9169 333.766,471.8519 C346.5793,409.787 339.8275,343.6828 317.8333,289.8387 C293.1736,226.0545 242.048,164.7215 176.3684,128.943 z" stroke="Black" stroke-width="0" fill="#A800FD" fill-opacity="1" />
  <path d="M211.8123,584.2006 L206.1017,590.1454 L192.4402,602.9643 C108.8223,547.625 62.57405,444.3325 64.8595,360 C64.30715,298.9044 85.78612,228.0725 132.0404,172.5371 L147.7292,180.558 C198.933,208.3744 241.9435,257.2925 262.977,311.6357 C300.6944,396.6252 278.5563,517.7845 211.8123,584.2006 z" stroke="Black" stroke-width="0" fill="#0000FD" fill-opacity="1" />
  <path d="M132.0404,172.5371 C145.1997,156.5266 160.1405,141.8331 176.3684,128.943 C260.6276,173.3292 326.0715,268.6154 337.254,363.1919 C352.5341,457.1934 315.8438,566.8116 247.0554,632.6746 C227.9065,624.7488 209.4986,614.735 192.4409,602.9648 C256.3998,550.1037 292.5272,453.2272 278.7986,371.3947 C269.4739,288.9443 208.0782,205.7529 132.0404,172.5371 z" stroke="Black" stroke-width="0" fill="#000000" fill-opacity="1" />
  <path d="M632.6743,247.0546 C641.2963,267.8504 647.5565,289.7829 651.2106,311.9967 L311.9967,651.2106 C289.7832,647.5565 267.851,641.2965 247.0554,632.6746 L247.8397,631.8884 z" stroke="Black" stroke-width="0" fill="#000000" fill-opacity="1" />
  <path d="M360.9849,64.86115 C417.5558,64.73991 476.2902,82.56931 523.2474,114.1175 C516.0851,170.0269 492.2141,241.2322 457.2339,313.6721 C420.951,418.6782 341.3918,539.4301 247.0546,632.6743 C338.5986,543.6271 404.438,412.1406 410.7671,305.7277 C432.9856,200.946 413.0627,104.2552 360.9849,64.86115 z" stroke="Black" stroke-width="0" fill="#FD0000" fill-opacity="1" />
  <path d="M632.6743,247.0546 L247.0546,632.6743 C344.562,535.4362 435.8244,424.8253 503.7009,321.6166 C537.9275,275.9427 570.2028,230.4498 599.1179,186.9955 C612.5673,205.5707 623.9057,225.8642 632.6743,247.0546 z" stroke="Black" stroke-width="0" fill="#A8FD00" fill-opacity="1" />
  <path d="M523.2474,114.1175 C552.4904,133.4789 578.5961,158.5549 599.1179,186.9955 C570.2028,230.4498 537.9275,275.9427 503.7009,321.6166 C435.8244,424.8253 344.562,535.4362 247.0546,632.6743 C341.3918,539.4301 420.951,418.6782 457.2339,313.6721 C492.2141,241.2322 516.0851,170.0269 523.2474,114.1175 z" stroke="Black" stroke-width="0" fill="#FDA800" fill-opacity="1" />
  <path d="M64.8595,360 C64.80956,396.0162 71.63242,435.0544 87.20681,472.6578" stroke="#FFFFFF" stroke-width="28.8" fill-opacity="0" />
  <path d="M143.8017,560.9135 C163.0151,581.6147 185.3062,599.529 209.2233,613.7209" stroke="#FFFFFF" stroke-width="28.8" fill-opacity="0" />
  <path d="M307.5201,650.4372 C325.3764,653.6653 343.0002,655.1423 360,655.1405 C370.26,655.1407 380.7437,654.6047 391.3716,653.4684" stroke="#FFFFFF" stroke-width="28.8" fill-opacity="0" />
  <path d="M491.8996,624.0273 C516.6742,611.6708 540.2498,595.4481 561.042,576.0787" stroke="#FFFFFF" stroke-width="28.8" fill-opacity="0" />
  <path d="M623.9272,492.0996 C636.9252,466.1629 645.6846,438.9634 650.4693,412.3019" stroke="#FFFFFF" stroke-width="28.8" fill-opacity="0" />
  <path d="M650.4546,307.6164 C645.6677,280.9856 636.9149,253.8199 623.9339,227.9136" stroke="#FFFFFF" stroke-width="28.8" fill-opacity="0" />
  <path d="M561.0486,143.9274 C540.2704,124.57 516.7124,108.3549 491.9557,96.00076" stroke="#FFFFFF" stroke-width="28.8" fill-opacity="0" />
  <path d="M391.2755,66.52129 C380.6805,65.39201 370.2291,64.8593 360,64.8595 C342.9759,64.85771 325.3261,66.33892 307.4437,69.5766" stroke="#FFFFFF" stroke-width="28.8" fill-opacity="0" />
  <path d="M209.194,106.2965 C185.2896,120.4847 163.0102,138.3913 143.8057,159.0823" stroke="#FFFFFF" stroke-width="28.8" fill-opacity="0" />
  <path d="M87.17533,247.4184 C71.62298,284.9986 64.80971,324.0081 64.8595,360" stroke="#FFFFFF" stroke-width="28.8" fill-opacity="0" />
  <path d="M717.1203,162.6096 L632.6746,247.0553" stroke="#FFFFFF" stroke-width="28.8" fill-opacity="0" />
  <path d="M247.0546,632.6743 L162.6089,717.12" stroke="#FFFFFF" stroke-width="28.8" fill-opacity="0" />
  <path d="M176.3684,128.943 C141.5834,109.5744 102.4194,96.68365 62.9309,91.60529" stroke="#FFFFFF" stroke-width="28.8" fill-opacity="0" />
  <path d="M247.0546,632.6743 L162.6089,717.12" stroke="#FFFFFF" stroke-width="28.8" fill-opacity="0" />
  <path d="M632.6743,247.0546 L717.12,162.6089" stroke="#FFFFFF" stroke-width="28.8" fill-opacity="0" />
  <path d="M297.0086,247.0546 L297.0086,334.5171" stroke="#FFFFFF" stroke-width="28.8" fill-opacity="0" />
  <path d="M297.0086,439.9244 L297.0086,524.2502" stroke="#FFFFFF" stroke-width="28.8" fill-opacity="0" />
  <path d="M297.0086,629.6576 L297.0086,717.12" stroke="#FFFFFF" stroke-width="28.8" fill-opacity="0" />
  <path d="M632.6743,247.0546 L507.5703,247.0546" stroke="#FFFFFF" stroke-width="28.8" fill-opacity="0" />
  <path d="M402.1629,247.0546 L317.8371,247.0546" stroke="#FFFFFF" stroke-width="28.8" fill-opacity="0" />
  <path d="M212.4297,247.0546 L87.32573,247.0546" stroke="#FFFFFF" stroke-width="28.8" fill-opacity="0" />
  <path d="M176.3684,128.943 L176.3684,247.0546" stroke="#FFFFFF" stroke-width="28.8" fill-opacity="0" />
</svg>