<?xml version="1.0" encoding="UTF-8" standalone="no"?>
<!DOCTYPE svg PUBLIC "-//W3C//DTD SVG 1.1//EN" "http://www.w3.org/Graphics/SVG/1.1/DTD/svg11.dtd">
<svg width="720pt" height="720pt" viewBox="0 0 720 720" overflow="visible" version="1.1" xmlns="http://www.w3.org/2000/svg">
  <path d="M211.8123,584.2006 L206.1017,590.1454 L192.4402,602.9643 C108.8223,547.625 62.57405,444.3325 64.8595,360 C64.30715,298.9044 85.78612,228.0725 132.0404,172.5371 L147.7292,180.558 C198.933,208.3744 241.9435,257.2925 262.977,311.6357 C300.6944,396.6252 278.5563,517.7845 211.8123,584.2006 z" stroke="Black" stroke-width="0" fill="#0000FD" fill-opacity="1" />
  <path d="M176.3684,128.943 C194.9183,114.1886 215.41,101.6032 236.9581,91.73035 C307.6851,124.6632 357.2729,207.9327 364.3002,297.7832 C386.2091,405.1942 336.1998,548.0368 247.0546,632.6743 C288.5741,591.9426 320.9527,533.9169 333.766,471.8519 C346.5793,409.787 339.8275,343.6828 317.8333,289.8387 C293.1736,226.0545 242.048,164.7215 176.3684,128.943 z" stroke="Black" stroke-width="0" fill="#A800FD" fill-opacity="1" />
  <path d="M359.9468,64.02503 L360.9849,64.86115 C413.0627,104.2552 432.9856,200.946 410.7671,305.7277 C404.438,412.1406 338.5986,543.6271 247.0546,632.6743 C336.1998,548.0368 386.2091,405.1942 364.3002,297.7832 C357.2729,207.9327 307.6851,124.6632 236.9581,91.73035 C267.5088,77.67666 300.981,68.83363 334.4866,65.96432 L340.6844,65.49224 z" stroke="Black" stroke-width="0" fill="#FD00A8" fill-opacity="1" />
  <path d="M651.2106,311.9967 C653.9028,328.322 655.1417,344.4219 655.1405,360 C656.9706,428.8435 625.7277,511.664 568.6959,568.6959 C511.664,625.7277 428.8435,656.9706 360,655.1405 C344.4219,655.1417 328.322,653.9028 311.9967,651.2106 z" stroke="Black" stroke-width="0" fill="#00FF00" fill-opacity="1" />
  <path d="M360.9849,64.86115 C417.5558,64.73991 476.2902,82.56931 523.2474,114.1175 C516.0851,170.0269 492.2141,241.2322 457.2339,313.6721 C420.951,418.6782 341.3918,539.4301 247.0546,632.6743 C338.5986,543.6271 404.438,412.1406 410.7671,305.7277 C432.9856,200.946 413.0627,104.2552 360.9849,64.86115 z" stroke="Black" stroke-width="0" fill="#FD0000" fill-opacity="1" />
  <path d="M523.2474,114.1175 C552.4904,133.4789 578.5961,158.5549 599.1179,186.9955 C570.2028,230.4498 537.9275,275.9427 503.7009,321.6166 C435.8244,424.8253 344.562,535.4362 247.0546,632.6743 C341.3918,539.4301 420.951,418.6782 457.2339,313.6721 C492.2141,241.2322 516.0851,170.0269 523.2474,114.1175 z" stroke="Black" stroke-width="0" fill="#FDA800" fill-opacity="1" />
  <path d="M632.6743,247.0546 L247.0546,632.6743 C344.562,535.4362 435.8244,424.8253 503.7009,321.6166 C537.9275,275.9427 570.2028,230.4498 599.1179,186.9955 C612.5673,205.5707 623.9057,225.8642 632.6743,247.0546 z" stroke="Black" stroke-width="0" fill="#A8FD00" fill-opacity="1" />
  <path d="M64.8595,360 C64.8523,383.3723 67.66182,407.9493 73.93894,432.6429" stroke="#7F7F7F" stroke-width="28.8" fill-opacity="0" />
  <path d="M106.0279,510.3532 C116.6579,528.3203 129.3661,545.3882 143.8044,560.9163" stroke="#7F7F7F" stroke-width="28.8" fill-opacity="0" />
  <path d="M209.2267,613.7229 C227.6801,624.6946 247.0765,633.4697 266.6671,639.9944" stroke="#7F7F7F" stroke-width="28.8" fill-opacity="0" />
  <path d="M349.3802,654.9494 L360,655.1405 C376.9145,655.1422 394.4465,653.6802 412.2109,650.4857" stroke="#7F7F7F" stroke-width="28.8" fill-opacity="0" />
  <path d="M491.9244,624.0149 C510.5539,614.7123 528.5128,603.2466 545.1102,589.8741" stroke="#7F7F7F" stroke-width="28.8" fill-opacity="0" />
  <path d="M602.4069,528.3651 C614.6096,510.8053 624.7529,492.0861 632.6796,472.9326" stroke="#7F7F7F" stroke-width="28.8" fill-opacity="0" />
  <path d="M653.459,391.4602 C654.6017,380.802 655.1407,370.2885 655.1405,360 C655.1407,349.6839 654.5989,339.1417 653.4498,328.4542" stroke="#7F7F7F" stroke-width="28.8" fill-opacity="0" />
  <path d="M632.6646,247.0313 C624.7379,227.8848 614.5959,209.1727 602.3962,191.6194" stroke="#7F7F7F" stroke-width="28.8" fill-opacity="0" />
  <path d="M545.1063,130.1227 C528.5209,116.7605 510.5762,105.3021 491.9615,96.00363" stroke="#7F7F7F" stroke-width="28.8" fill-opacity="0" />
  <path d="M412.1496,69.50331 C394.4062,66.31647 376.8951,64.85777 360,64.8595 L349.3905,65.05025" stroke="#7F7F7F" stroke-width="28.8" fill-opacity="0" />
  <path d="M266.612,80.02395 C247.0286,86.55054 227.6399,95.32604 209.194,106.2965" stroke="#7F7F7F" stroke-width="28.8" fill-opacity="0" />
  <path d="M143.8057,159.0823 C129.3602,174.6179 116.6465,191.6949 106.0132,209.6716" stroke="#7F7F7F" stroke-width="28.8" fill-opacity="0" />
  <path d="M73.92473,287.4131 C67.65754,312.0879 64.85233,336.6453 64.8595,360" stroke="#7F7F7F" stroke-width="28.8" fill-opacity="0" />
  <path d="M247.0546,632.6743 L162.6089,717.12" stroke="#7F7F7F" stroke-width="28.8" fill-opacity="0" />
  <path d="M176.3684,128.943 C141.5834,109.5744 102.4194,96.68365 62.9309,91.60529" stroke="#7F7F7F" stroke-width="28.8" fill-opacity="0" />
  <path d="M247.0546,632.6743 L162.6089,717.12" stroke="#7F7F7F" stroke-width="28.8" fill-opacity="0" />
  <path d="M632.6743,247.0546 L717.12,162.6089 z" stroke="#7F7F7F" stroke-width="28.8" fill-opacity="0" />
  <path d="M632.6743,247.0546 L549.7332,247.0546" stroke="#808080" stroke-width="28.8" fill-opacity="0" />
  <path d="M465.4073,247.0546 L402.1629,247.0546" stroke="#808080" stroke-width="28.8" fill-opacity="0" />
  <path d="M317.8371,247.0546 L254.5927,247.0546" stroke="#808080" stroke-width="28.8" fill-opacity="0" />
  <path d="M170.2668,247.0546 L87.32573,247.0546" stroke="#808080" stroke-width="28.8" fill-opacity="0" />
  <path d="M176.3684,128.943 L176.3684,247.0546" stroke="#808080" stroke-width="28.8" fill-opacity="0" />
  <path d="M297.0086,247.0546 L297.0086,292.3541" stroke="#808080" stroke-width="28.8" fill-opacity="0" />
  <path d="M297.0086,376.68 L297.0086,439.9244" stroke="#808080" stroke-width="28.8" fill-opacity="0" />
  <path d="M297.0086,524.2502 L297.0086,587.4946" stroke="#808080" stroke-width="28.8" fill-opacity="0" />
  <path d="M297.0086,671.8205 L297.0086,717.12" stroke="#808080" stroke-width="28.8" fill-opacity="0" />
</svg>