<?xml version="1.0" encoding="UTF-8" standalone="no"?>
<!DOCTYPE svg PUBLIC "-//W3C//DTD SVG 1.1//EN" "http://www.w3.org/Graphics/SVG/1.1/DTD/svg11.dtd">
<svg width="1224pt" height="792pt" viewBox="0 0 1224 792" overflow="visible" version="1.1" xmlns="http://www.w3.org/2000/svg">
  <path d="M755.8871,295.0656 C755.9086,311.9864 752.8206,330.3293 745.7845,348.0297 C738.7485,365.7302 727.7645,382.7882 713.7435,396.8092 C699.7225,410.8302 682.6645,421.8141 664.9641,428.8502 C647.2636,435.8862 628.9207,438.9743 612,438.9527 C595.0793,438.9743 576.7364,435.8862 559.0359,428.8502 C541.3355,421.8141 524.2775,410.8302 510.2565,396.8092 C496.2355,382.7882 485.2515,365.7302 478.2155,348.0297 C471.1795,330.3293 468.0913,311.9864 468.1129,295.0656 C468.0913,278.1449 471.1795,259.802 478.2155,242.1016 C485.2515,224.4011 496.2355,207.3431 510.2565,193.3221 C524.2775,179.3011 541.3355,168.3172 559.0359,161.2811 C576.7364,154.2451 595.0793,151.157 612,151.1786 C628.9207,151.157 647.2636,154.2451 664.9641,161.2811 C682.6645,168.3172 699.7225,179.3011 713.7435,193.3221 C727.7645,207.3431 738.7485,224.4011 745.7845,242.1016 C752.8206,259.802 755.9086,278.1449 755.8871,295.0656 z" stroke="Black" stroke-width="0" fill="#000000" fill-opacity="1" />
  <path d="M768.4965,421.9028 C811.1554,458.2408 846.9653,512.173 870.0914,571.8583 C893.2174,631.5437 903.6597,696.9822 903.4668,755.7177 L320.5332,755.7177 C320.3403,696.9822 330.7826,631.5437 353.9086,571.8583 C377.0347,512.173 412.8446,458.2408 455.5035,421.9028 C475.0905,446.2836 500.9619,465.8239 528.5269,478.3989 C556.0918,490.9738 585.3505,496.5835 612,496.5075 C638.6495,496.5835 667.9082,490.9738 695.4731,478.3989 C723.0381,465.8239 748.9095,446.2836 768.4965,421.9028 z" stroke="Black" stroke-width="0" fill="#000000" fill-opacity="1" />
</svg>