<?xml version="1.0" encoding="UTF-8" standalone="no"?>
<!DOCTYPE svg PUBLIC "-//W3C//DTD SVG 1.1//EN" "http://www.w3.org/Graphics/SVG/1.1/DTD/svg11.dtd">
<svg width="1224pt" height="792pt" viewBox="0 0 1224 792" overflow="visible" version="1.1" xmlns="http://www.w3.org/2000/svg">
  <path d="M1115.569,686.9807 C1115.192,703.0315 1107.612,721.588 1094.543,734.6564 C1081.475,747.7249 1062.918,755.3054 1046.868,755.6819 L177.1324,755.6819 C161.0816,755.3054 142.5252,747.725 129.4567,734.6565 C116.3882,721.588 108.8076,703.0316 108.431,686.9807 L108.431,105.0193 C108.5482,102.9177 108.7482,100.7838 109.0382,98.62971 L612,457.8882 L1114.962,98.62971 C1115.252,100.7838 1115.452,102.9177 1115.569,105.0193 z" stroke="Black" stroke-width="0" fill="#000000" fill-opacity="1" />
  <path d="M1046.868,36.31808 C1061.534,36.86898 1078.088,42.68075 1090.878,53.94449 L612,396 L133.1223,53.94449 C145.9123,42.68073 162.4659,36.86897 177.1324,36.31808 z" stroke="Black" stroke-width="0" fill="#000000" fill-opacity="1" />
</svg>