<?xml version="1.0" encoding="UTF-8" standalone="no"?>
<!DOCTYPE svg PUBLIC "-//W3C//DTD SVG 1.1//EN" "http://www.w3.org/Graphics/SVG/1.1/DTD/svg11.dtd">
<svg viewBox="0 0 120 120" overflow="visible" version="1.1" xmlns="http://www.w3.org/2000/svg">
  <path d="M106.4377,93.17519 C107.0428,93.11385 107.7288,93.79983 107.6674,94.40495 C107.7288,95.01007 107.0428,95.69604 106.4377,95.6347 L86.30742,95.6347 C85.70229,95.69604 85.01632,95.01007 85.07767,94.40495 C85.01632,93.79983 85.70229,93.11385 86.30742,93.17519 z" stroke="Black" stroke-width="0" fill="#FFFFFF" fill-opacity="1" />
  <path d="M33.69258,32.96654 C34.2977,32.90519 34.98368,33.59117 34.92233,34.19629 C34.98368,34.80141 34.2977,35.48739 33.69258,35.42604 L13.56231,35.42604 C12.95719,35.48739 12.27121,34.80141 12.33256,34.19629 C12.27121,33.59117 12.95719,32.90519 13.56231,32.96654 z" stroke="Black" stroke-width="0" fill="#FFFFFF" fill-opacity="1" />
  <path d="M33.69258,23.13555 C34.90282,23.01285 36.27478,24.38481 36.15208,25.59505 C36.27478,26.80529 34.90282,28.17725 33.69258,28.05455 L13.56231,28.05455 C12.35207,28.17725 10.98012,26.80529 11.10281,25.59505 C10.98012,24.38481 12.35207,23.01285 13.56231,23.13555 z" stroke="Black" stroke-width="0" fill="#FFFFFF" fill-opacity="1" />
  <path d="M33.69258,84.57396 C34.2977,84.51261 34.98368,85.19859 34.92233,85.80371 C34.98368,86.40884 34.2977,87.09481 33.69258,87.03346 L13.56231,87.03346 C12.95719,87.09481 12.27121,86.40884 12.33256,85.80371 C12.27121,85.19859 12.95719,84.51261 13.56231,84.57396 z" stroke="Black" stroke-width="0" fill="#FFFFFF" fill-opacity="1" />
  <path d="M106.4377,50.16901 C107.0428,50.10766 107.7288,50.79364 107.6674,51.39876 C107.7288,52.00388 107.0428,52.68986 106.4377,52.62851 L86.30742,52.62851 C85.70229,52.68986 85.01632,52.00388 85.07767,51.39876 C85.01632,50.79364 85.70229,50.10766 86.30742,50.16901 z" stroke="Black" stroke-width="0" fill="#FFFFFF" fill-opacity="1" />
  <path d="M33.69258,41.56777 C34.2977,41.50643 34.98368,42.19241 34.92233,42.79752 C34.98368,43.40265 34.2977,44.08862 33.69258,44.02728 L13.56231,44.02728 C12.95719,44.08862 12.27121,43.40265 12.33256,42.79752 C12.27121,42.19241 12.95719,41.50643 13.56231,41.56777 z" stroke="Black" stroke-width="0" fill="#FFFFFF" fill-opacity="1" />
  <path d="M106.4377,23.13555 C107.6479,23.01285 109.0199,24.38481 108.8972,25.59505 C109.0199,26.80529 107.6479,28.17725 106.4377,28.05455 L86.30742,28.05455 C85.09718,28.17725 83.72522,26.80529 83.84792,25.59505 C83.72522,24.38481 85.09718,23.01285 86.30742,23.13555 z" stroke="Black" stroke-width="0" fill="#FFFFFF" fill-opacity="1" />
  <path d="M33.69258,93.17519 C34.2977,93.11385 34.98368,93.79983 34.92233,94.40495 C34.98368,95.01007 34.2977,95.69604 33.69258,95.6347 L13.56231,95.6347 C12.95719,95.69604 12.27121,95.01007 12.33256,94.40495 C12.27121,93.79983 12.95719,93.11385 13.56231,93.17519 z" stroke="Black" stroke-width="0" fill="#FFFFFF" fill-opacity="1" />
  <path d="M33.69258,75.97272 C34.2977,75.91138 34.98368,76.59735 34.92233,77.20248 C34.98368,77.80759 34.2977,78.49358 33.69258,78.43223 L13.56231,78.43223 C12.95719,78.49358 12.27121,77.80759 12.33256,77.20248 C12.27121,76.59735 12.95719,75.91138 13.56231,75.97272 z" stroke="Black" stroke-width="0" fill="#FFFFFF" fill-opacity="1" />
  <path d="M106.4377,84.57396 C107.0428,84.51261 107.7288,85.19859 107.6674,85.80371 C107.7288,86.40884 107.0428,87.09481 106.4377,87.03346 L86.30742,87.03346 C85.70229,87.09481 85.01632,86.40884 85.07767,85.80371 C85.01632,85.19859 85.70229,84.51261 86.30742,84.57396 z" stroke="Black" stroke-width="0" fill="#FFFFFF" fill-opacity="1" />
  <path d="M5.441171,105.4657 L5.441171,14.53431 L114.5588,14.53431 L114.5588,105.4657 z M41.81372,103.0062 L78.18628,103.0062 L78.18628,16.99381 L41.81372,16.99381 z M80.64578,16.99381 L80.64578,103.0062 L112.0993,103.0062 L112.0993,16.99381 z M39.35422,16.99381 L7.900675,16.99381 L7.900675,103.0062 L39.35422,103.0062 z" stroke="Black" stroke-width="0" fill="#000000" fill-opacity="1" />
  <path d="M33.69258,50.16901 C34.2977,50.10766 34.98368,50.79364 34.92233,51.39876 C34.98368,52.00388 34.2977,52.68986 33.69258,52.62851 L13.56231,52.62851 C12.95719,52.68986 12.27121,52.00388 12.33256,51.39876 C12.27121,50.79364 12.95719,50.10766 13.56231,50.16901 z" stroke="Black" stroke-width="0" fill="#FFFFFF" fill-opacity="1" />
  <path d="M106.4377,32.96654 C107.0428,32.90519 107.7288,33.59117 107.6674,34.19629 C107.7288,34.80141 107.0428,35.48739 106.4377,35.42604 L86.30742,35.42604 C85.70229,35.48739 85.01632,34.80141 85.07767,34.19629 C85.01632,33.59117 85.70229,32.90519 86.30742,32.96654 z" stroke="Black" stroke-width="0" fill="#FFFFFF" fill-opacity="1" />
  <path d="M106.4377,67.37148 C107.0428,67.31013 107.7288,67.99612 107.6674,68.60123 C107.7288,69.20636 107.0428,69.89233 106.4377,69.83099 L86.30742,69.83099 C85.70229,69.89233 85.01632,69.20636 85.07767,68.60123 C85.01632,67.99612 85.70229,67.31013 86.30742,67.37148 z" stroke="Black" stroke-width="0" fill="#FFFFFF" fill-opacity="1" />
  <path d="M106.4377,58.77025 C107.0428,58.7089 107.7288,59.39488 107.6674,60 C107.7288,60.60512 107.0428,61.2911 106.4377,61.22975 L86.30742,61.22975 C85.70229,61.2911 85.01632,60.60512 85.07767,60 C85.01632,59.39488 85.70229,58.7089 86.30742,58.77025 z" stroke="Black" stroke-width="0" fill="#FFFFFF" fill-opacity="1" />
  <path d="M33.69258,67.37148 C34.2977,67.31013 34.98368,67.99612 34.92233,68.60123 C34.98368,69.20636 34.2977,69.89233 33.69258,69.83099 L13.56231,69.83099 C12.95719,69.89233 12.27121,69.20636 12.33256,68.60123 C12.27121,67.99612 12.95719,67.31013 13.56231,67.37148 z" stroke="Black" stroke-width="0" fill="#FFFFFF" fill-opacity="1" />
  <path d="M106.4377,41.56777 C107.0428,41.50643 107.7288,42.19241 107.6674,42.79752 C107.7288,43.40265 107.0428,44.08862 106.4377,44.02728 L86.30742,44.02728 C85.70229,44.08862 85.01632,43.40265 85.07767,42.79752 C85.01632,42.19241 85.70229,41.50643 86.30742,41.56777 z" stroke="Black" stroke-width="0" fill="#FFFFFF" fill-opacity="1" />
  <path d="M106.4377,75.97272 C107.0428,75.91138 107.7288,76.59735 107.6674,77.20248 C107.7288,77.80759 107.0428,78.49358 106.4377,78.43223 L86.30742,78.43223 C85.70229,78.49358 85.01632,77.80759 85.07767,77.20248 C85.01632,76.59735 85.70229,75.91138 86.30742,75.97272 z" stroke="Black" stroke-width="0" fill="#FFFFFF" fill-opacity="1" />
  <path d="M33.69258,58.77025 C34.2977,58.7089 34.98368,59.39488 34.92233,60 C34.98368,60.60512 34.2977,61.2911 33.69258,61.22975 L13.56231,61.22975 C12.95719,61.2911 12.27121,60.60512 12.33256,60 C12.27121,59.39488 12.95719,58.7089 13.56231,58.77025 z" stroke="Black" stroke-width="0" fill="#FFFFFF" fill-opacity="1" />
</svg>