<?xml version="1.0" encoding="UTF-8" standalone="no"?>
<!DOCTYPE svg PUBLIC "-//W3C//DTD SVG 1.1//EN" "http://www.w3.org/Graphics/SVG/1.1/DTD/svg11.dtd">
<svg width="1224pt" height="792pt" viewBox="0 0 1224 792" overflow="visible" version="1.1" xmlns="http://www.w3.org/2000/svg">
  <path d="M359.1976,130.0255 C376.1679,106.9707 398.8441,86.52313 424.7054,71.59235 C450.5667,56.66156 479.6131,47.24756 508.0643,44.07867 C522.2582,41.94304 537.6384,50.84289 543.3094,61.83121 L579.2808,124.1364 C583.6692,131.2914 585.4185,141.9372 582.8741,151.4325 C580.3298,160.9277 573.4919,169.2725 566.1138,173.2746 L460.9013,234.0181 C454.5692,237.5558 448.7709,243.9019 445.6685,251.3683 C442.5663,258.8347 442.16,267.4213 444.1205,274.4045 C452.271,305.0922 462.5898,335.1991 474.8032,364.5105 C487.1288,394.0912 501.3842,422.8617 517.4062,450.6133 C533.4282,478.3648 551.217,505.0976 570.672,530.5618 C589.9504,555.7949 610.865,579.7824 633.3665,602.186 C638.4338,607.3756 646.0732,611.3172 654.0904,612.3638 C662.1076,613.4104 670.5027,611.5621 676.7325,607.8473 L781.9418,547.1057 C789.0967,542.7173 799.7426,540.968 809.2379,543.5123 C818.7331,546.0566 827.0779,552.8946 831.08,560.2726 L867.0513,622.5778 C873.7319,632.9835 873.749,650.7534 864.802,661.9777 C847.832,685.0313 825.1566,705.4778 799.2963,720.408 C773.436,735.3381 744.391,744.752 715.9409,747.9213 C707.8817,748.9185 699.0349,746.8392 692.2635,742.3564 C593.6845,678.9292 509.6587,582.1212 455.1002,486.586 C399.6438,391.5699 357.8187,270.3981 352.1783,153.3132 C351.6818,145.2077 354.3045,136.5064 359.1976,130.0255 z" stroke="Black" stroke-width="0" fill="#000000" fill-opacity="1" />
</svg>