<?xml version="1.0" encoding="UTF-8" standalone="no"?>
<!DOCTYPE svg PUBLIC "-//W3C//DTD SVG 1.1//EN" "http://www.w3.org/Graphics/SVG/1.1/DTD/svg11.dtd">
<svg width="1224pt" height="792pt" viewBox="0 0 1224 792" overflow="visible" version="1.1" xmlns="http://www.w3.org/2000/svg">
  <path d="M908.5531,167.939 C930.7926,196.8173 950.1547,230.9215 963.8298,268.8333 C977.5049,306.7451 985.4929,348.4646 986.0704,390.8115 C986.6479,433.1583 979.8149,476.1327 966.3293,516.0262 C952.8436,555.9199 932.7053,592.7327 908.5531,624.061 C902.386,632.0804 895.9622,639.7596 889.3318,647.0829 C875.6125,662.2383 861.0126,675.8597 845.9598,687.9218 C787.0641,735.9449 702.3951,770.4008 612.9695,770.1051 L611.0283,770.1051 C557.0125,770.1522 502.6931,757.5937 454.9709,735.5547 C407.2487,713.5158 366.1235,681.9965 334.6682,647.0829 C331.2859,643.3471 328.0056,639.572 324.8268,635.7646 C321.6479,631.9573 318.519,628.0557 315.4469,624.061 C289.1857,590.0038 267.0667,548.6555 253.471,502.8293 C239.8753,457.003 234.8029,406.6988 239.8728,357.5697 C244.9426,308.4406 260.1548,260.4867 282.5579,218.7333 C304.9611,176.9799 334.5553,141.4272 366.5269,113.6907 C399.359,85.07021 440.0752,60.09087 486.1266,43.70546 C532.178,27.32004 583.5648,19.52854 634.3051,22.55918 C685.0453,25.58982 735.1393,39.4426 778.9129,61.19313 C822.6866,82.94366 860.1399,112.5919 889.3318,144.9171 C896.0414,152.328 902.4589,160.0143 908.5531,167.939 z M523.2233,62.27741 C462.2062,78.23228 405.2365,112.4798 363.2886,156.428 C392.0978,167.291 421.6838,176.2801 451.6667,183.2799 C457.4736,166.8698 464.1702,150.7752 471.9543,135.21 C476.3913,126.3376 481.1817,117.6372 486.3829,109.1889 C491.2602,101.2667 496.4988,93.56628 502.151,86.17809 C507.4117,79.30151 513.0307,72.69544 519.0488,66.46985 z M860.7114,156.428 C817.9672,111.6551 760.6702,77.92496 700.7797,62.27821 L704.9523,66.46827 C710.9705,72.69379 716.5883,79.30184 721.8487,86.17875 C727.5005,93.56728 732.7398,101.2661 737.6173,109.1881 C742.8188,117.6362 747.6088,126.338 752.0456,135.211 C759.8293,150.7773 766.5261,166.8706 772.3332,183.28 C802.3161,176.2801 831.9022,167.291 860.7114,156.428 z M860.7114,635.572 C832.1001,624.7837 802.5236,615.7684 772.3335,608.7201 C766.5273,625.1308 759.8318,641.226 752.0458,656.7895 C747.6076,665.6609 742.8151,674.3597 737.6146,682.8085 C732.738,690.7312 727.5027,698.4342 721.8503,705.8228 C716.5892,712.6996 710.9669,719.3041 704.9497,725.5296 L700.7757,729.7229 C758.7537,714.5833 816.5375,681.8007 860.7114,635.572 z M442.8185,581.2386 C438.0104,564.7567 433.9909,548.0457 430.6571,531.2024 C426.1812,508.5883 422.9415,485.7356 420.8175,462.781 C419.2056,445.3601 418.2363,427.8806 417.8939,410.3887 L266.9709,410.3887 C269.4613,482.4255 297.4065,556.7266 343.0053,612.55 C375.1995,599.8629 408.6267,589.3369 442.8185,581.2386 z M880.9948,612.55 C907.751,579.3909 927.725,541.6658 940.1768,503.4807 C949.7625,474.2661 955.6972,442.7066 957.0291,410.3887 L806.1061,410.3887 C805.7635,427.8802 804.7938,445.359 803.1821,462.7803 C801.0585,485.7354 797.8202,508.5905 793.3439,531.2042 C790.0098,548.0475 785.989,564.7568 781.1805,581.2383 C815.112,589.2748 848.5528,599.7652 880.9948,612.55 z M957.0291,381.6113 C954.4167,307.3327 925.2248,233.5699 880.9948,179.45 C848.5531,192.2347 815.1125,202.725 781.1814,210.7614 C785.9899,227.2429 790.0101,243.9533 793.3438,260.7966 C797.8196,283.4106 801.0582,306.2643 803.1819,329.2192 C804.7937,346.6403 805.7634,364.1196 806.1061,381.6113 z M266.9709,381.6113 L417.8941,381.6113 C418.2368,364.1197 419.2062,346.6408 420.8179,329.2196 C422.9416,306.2647 426.1803,283.4101 430.6563,260.7962 C433.9901,243.9528 438.0104,227.243 442.8188,210.7615 C408.8876,202.7251 375.447,192.2347 343.0053,179.45 C297.4065,235.2734 269.4613,309.5745 266.9709,381.6113 z M523.2231,729.7226 L519.0483,725.5309 C513.0297,719.306 507.4119,712.698 502.1514,705.8212 C496.4995,698.4327 491.2599,690.7341 486.3824,682.8122 C481.1809,674.3641 476.3911,665.6624 471.9542,656.7893 C464.1705,641.223 457.4734,625.1298 451.6662,608.7202 C421.6835,615.72 392.0976,624.709 363.2886,635.572 C406.0334,680.3456 463.3317,714.0761 523.2231,729.7226 z M597.8577,561.6064 L597.7848,410.3887 L446.6778,410.3887 C447.0161,426.9954 447.9423,443.5896 449.4724,460.1293 C451.5049,482.0986 454.6028,503.9718 458.8866,525.6154 C462.1877,542.2949 466.1932,558.838 471.0202,575.1397 C512.7184,566.9704 555.3176,562.4202 597.8577,561.6064 z M597.7709,381.6113 L597.698,230.3905 C555.0411,229.5651 512.5001,224.9869 471.0192,216.8601 C466.1915,233.1606 462.1875,249.7055 458.8869,266.3852 C454.6038,288.0297 451.505,309.9012 449.4723,331.8703 C447.942,348.4097 447.0158,365.0044 446.6776,381.6113 z M626.4754,230.3871 L626.5483,381.6113 L777.3225,381.6113 C776.9842,365.0045 776.0579,348.4102 774.5276,331.8706 C772.4949,309.9015 769.3966,288.0289 765.1127,266.3855 C761.8113,249.706 757.8059,233.1626 752.9791,216.8604 C711.5549,224.976 669.0735,229.5527 626.4754,230.3871 z M626.649,590.3997 L626.7211,739.8958 C631.1492,739.0309 635.5024,737.785 639.7339,736.2182 C644.7882,734.3467 649.6688,732.0172 654.3464,729.3398 C659.5751,726.3471 664.5502,722.9199 669.2732,719.1799 C674.5768,714.98 679.5624,710.3857 684.2653,705.5222 C689.5116,700.0964 694.406,694.3354 698.991,688.3407 C704.0546,681.7202 708.7408,674.8147 713.1111,667.7172 C717.8684,659.9914 722.2514,652.038 726.3093,643.9236 C730.6616,635.2203 734.6398,626.3316 738.2987,617.3141 L743.9162,602.6984 C705.3374,595.3452 665.9747,591.2119 626.649,590.3997 z M597.9438,740.0228 L597.8716,590.3891 C558.0813,591.1816 518.5471,595.3669 480.0785,602.6994 C485.187,616.7537 491.0076,630.5461 497.6948,643.919 C501.7526,652.0337 506.1295,659.9939 510.8862,667.7201 C515.2562,674.8181 519.9467,681.7186 525.0108,688.3386 C529.5962,694.3328 534.4879,700.097 539.7339,705.5232 C544.4363,710.3872 549.4235,714.9797 554.7273,719.1793 C559.4504,722.9191 564.4247,726.3474 569.6532,729.3402 C574.3309,732.0177 579.212,734.3467 584.2663,736.218 C588.7095,737.8632 593.2864,739.1547 597.9438,740.0228 z M626.5622,410.3887 L626.6351,561.6161 C669.3506,562.4622 711.7729,567.0667 752.9813,575.14 C757.8094,558.8397 761.8126,542.2945 765.113,525.6147 C769.3957,503.9701 772.4948,482.099 774.5276,460.1299 C776.0582,443.5906 776.9844,426.9957 777.3226,410.3887 z M626.3893,52.03997 L626.4615,201.6041 C665.9946,200.7982 705.4196,196.6394 743.9211,189.3006 C738.8129,175.2462 732.9926,161.4537 726.3055,148.0807 C722.2477,139.966 717.8708,132.0058 713.1141,124.2796 C708.7441,117.1815 704.0536,110.2809 698.9894,103.6611 C694.4039,97.66702 689.512,91.90313 684.2661,86.47693 C679.5636,81.61297 674.5767,77.02035 669.2728,72.82069 C664.5496,69.08083 659.5752,65.65258 654.3467,62.65981 C649.6691,59.98237 644.7881,57.65346 639.7338,55.78199 C635.3966,54.17606 630.9318,52.90696 626.3893,52.03997 z M597.6841,201.6071 L597.6119,52.03979 C593.0691,52.90673 588.6036,54.17572 584.2661,55.78186 C579.2119,57.6534 574.3313,59.98273 569.6536,62.66006 C564.4249,65.6527 559.4498,69.08015 554.7268,72.82022 C549.4232,77.02012 544.4376,81.61424 539.7347,86.47781 C534.4884,91.90356 529.594,97.66467 525.0091,103.6595 C519.9456,110.28 515.2596,117.1856 510.8894,124.2832 C506.1324,132.0091 501.7495,139.9625 497.691,148.0766 C493.3381,156.7795 489.3584,165.6673 485.6994,174.6846 L480.0822,189.3013 C518.6299,196.6487 558.1033,200.8084 597.6841,201.6071 z" stroke="Black" stroke-width="0" fill="#000000" fill-opacity="1" />
</svg>