<?xml version="1.0" encoding="UTF-8" standalone="no"?>
<!DOCTYPE svg PUBLIC "-//W3C//DTD SVG 1.1//EN" "http://www.w3.org/Graphics/SVG/1.1/DTD/svg11.dtd">
<svg width="1224pt" height="792pt" viewBox="0 0 1224 792" overflow="visible" version="1.1" xmlns="http://www.w3.org/2000/svg">
  <path d="M223.5203,397.283 L223.5203,394.717 C223.611,349.1064 232.0823,299.7068 251.1595,252.0666 C270.2367,204.4264 299.9199,158.5455 337.7502,120.8383 C375.5805,83.13118 421.558,53.59779 469.2602,34.67604 C516.9624,15.75428 566.3893,7.444172 612,7.502213 C657.6107,7.444172 707.0376,15.75428 754.7398,34.67604 C802.442,53.59779 848.4195,83.13118 886.2498,120.8383 C924.0801,158.5455 953.7633,204.4264 972.8405,252.0666 C991.9177,299.7068 1000.389,349.1064 1000.48,394.717 L1000.48,397.283 C1000.389,442.8934 991.9171,492.2927 972.8397,539.9326 C953.7623,587.5726 924.0791,633.4531 886.2488,671.1599 C848.4186,708.8668 802.4413,738.3998 754.7393,757.3215 C707.0372,776.243 657.6105,784.5531 612,784.4951 C566.3895,784.5531 516.9628,776.243 469.2607,757.3215 C421.5587,738.3998 375.5814,708.8668 337.7512,671.1599 C299.9209,633.4531 270.2377,587.5726 251.1603,539.9326 C232.0829,492.2927 223.6113,442.8934 223.5203,397.283 z M876.2111,595.2836 C913.1331,546.8221 936.6829,485.4957 941.6866,424.7774 L820.0812,424.7774 C819.6863,435.0042 819.0799,445.2229 818.2601,455.4247 C816.6145,475.9007 814.1088,496.3088 810.665,516.56 C808.1927,531.0989 805.2368,545.5569 801.7522,559.8867 L798.9826,570.8221 C825.1293,577.5694 850.9478,585.7472 876.2111,595.2836 z M834.1168,641.3275 C816.7536,635.4298 799.1413,630.2204 781.3636,625.7239 C771.6927,651.517 759.1037,676.3898 744.0451,699.456 C776.827,685.2286 807.6484,665.3378 834.1168,641.3275 z M724.1868,613.8087 C696.6086,609.2673 668.7028,606.3992 640.7774,605.236 L640.7774,720.1927 L647.2018,716.8517 C651.8058,714.2168 656.1828,711.1927 660.3412,707.8989 C665.1469,704.0923 669.6608,699.9255 673.9223,695.5182 C678.7823,690.4919 683.3141,685.153 687.5616,679.5995 C692.3313,673.3634 696.7425,666.8568 700.8591,660.1711 C705.3939,652.8063 709.5712,645.224 713.4396,637.4887 C717.3176,629.7343 720.8851,621.8261 724.1868,613.8087 z M762.4808,424.7774 L640.7774,424.7774 L640.7774,547.635 C674.9227,548.9468 709.0574,552.6143 742.702,558.5858 C745.8734,546.7646 748.6222,534.8283 750.998,522.8207 C755.1845,501.6614 758.2128,480.2806 760.2001,458.8043 C761.2477,447.4837 762.0061,436.1366 762.4808,424.7774 z M798.9833,221.1777 L801.7534,232.1137 C805.2381,246.444 808.1921,260.9017 810.6641,275.4403 C814.1072,295.6911 816.6151,316.0988 818.2613,336.5749 C819.0815,346.7768 819.6877,356.9956 820.0823,367.2226 L941.6866,367.2226 C936.6829,306.5043 913.1331,245.1779 876.2111,196.7164 C850.9479,206.2527 825.1298,214.4304 798.9833,221.1777 z M744.0444,92.54371 C759.1056,115.6084 771.6948,140.4819 781.3625,166.2764 C799.1406,161.7798 816.7532,156.5703 834.1168,150.6726 C807.6483,126.6621 776.8265,106.7711 744.0444,92.54371 z M640.7774,71.8072 L640.7774,186.764 C668.7048,185.6007 696.6125,182.7323 724.1927,178.1904 C720.8881,170.1743 717.3136,162.2716 713.4353,154.5158 C709.5671,146.7802 705.3967,139.1908 700.8623,131.8254 C696.7462,125.1393 692.3301,118.6378 687.5598,112.4023 C683.3118,106.8495 678.7828,101.5077 673.9232,96.48087 C669.662,92.07318 665.1466,87.90771 660.3408,84.10143 C656.1821,80.80775 651.806,77.78304 647.2021,75.14813 z M742.699,233.4148 C709.0553,239.386 674.9217,243.0532 640.7774,244.365 L640.7774,367.2226 L762.4807,367.2226 C762.0059,355.8637 761.2475,344.5169 760.2001,333.1963 C758.213,311.7198 755.1855,290.3376 750.9977,269.1795 C748.621,257.1718 745.8707,245.2364 742.699,233.4148 z M282.3133,367.2226 L403.9188,367.2226 C404.3139,356.9958 404.9204,346.7772 405.7403,336.5754 C407.386,316.0994 409.8911,295.6912 413.3351,275.4401 C415.8077,260.9013 418.7642,246.4435 422.2485,232.1135 L425.0178,221.1781 C398.8709,214.4307 373.0524,206.2529 347.7889,196.7164 C310.8669,245.1779 287.3171,306.5043 282.3133,367.2226 z M389.8832,150.6726 C407.2457,156.57 424.8574,161.7792 442.6343,166.2756 C452.3063,140.4826 464.896,115.6101 479.955,92.54397 C447.1731,106.7714 416.3516,126.6622 389.8832,150.6726 z M583.2226,186.764 L583.2226,71.80731 L576.7982,75.14828 C572.1941,77.7831 567.8172,80.80727 563.6588,84.10117 C558.8531,87.90771 554.3392,92.07452 550.0777,96.48174 C545.2177,101.5081 540.6859,106.8471 536.4385,112.4006 C531.6689,118.6368 527.258,125.1435 523.1415,131.8293 C518.6069,139.1943 514.4298,146.7766 510.5608,154.5115 C506.682,162.2658 503.113,170.1734 499.8109,178.191 C527.3899,182.7325 555.2964,185.6008 583.2226,186.764 z M481.2986,233.4144 C478.1272,245.2355 475.3779,257.1716 473.0019,269.1792 C468.8149,290.3384 465.787,311.7195 463.7998,333.196 C462.7523,344.5165 461.994,355.8635 461.5193,367.2226 L583.2226,367.2226 L583.2226,244.365 C549.0775,243.0532 514.9431,239.3858 481.2986,233.4144 z M583.2226,547.635 L583.2226,424.7774 L461.5196,424.7774 C461.9944,436.1362 462.7527,447.4829 463.8,458.8036 C465.7868,480.2803 468.8138,501.6632 473.0015,522.8215 C475.378,534.829 478.1283,546.7642 481.3,558.5854 C514.944,552.6141 549.078,548.9468 583.2226,547.635 z M583.2226,720.1929 L583.2226,605.236 C555.2952,606.3993 527.3875,609.2677 499.8073,613.8096 C503.112,621.8256 506.6866,629.7282 510.565,637.4839 C514.4333,645.2195 518.6037,652.8089 523.138,660.1743 C527.2542,666.8603 531.6702,673.3617 536.4404,679.5974 C540.6883,685.1503 545.217,690.4924 550.0767,695.5193 C554.3379,699.9269 558.8535,704.0922 563.6593,707.8984 C567.8179,711.1919 572.1938,714.2167 576.7977,716.8517 z M479.9554,699.4562 C464.8947,676.3912 452.3055,651.5179 442.637,625.7238 C424.8591,630.2203 407.2466,635.4297 389.8832,641.3275 C416.3517,665.3378 447.1733,685.2288 479.9554,699.4562 z M425.0163,570.8223 L422.2464,559.8865 C418.7621,545.5564 415.8083,531.0983 413.3366,516.5596 C409.8938,496.3085 407.3862,475.9008 405.7397,455.4248 C404.9194,445.2231 404.3128,435.0043 403.9179,424.7774 L282.3133,424.7774 C287.3171,485.4957 310.8669,546.8221 347.7889,595.2836 C373.0519,585.7473 398.8699,577.5696 425.0163,570.8223 z" stroke="Black" stroke-width="0" fill="#000000" fill-opacity="1" />
</svg>