<?xml version="1.0" encoding="UTF-8" standalone="no"?>
<!DOCTYPE svg PUBLIC "-//W3C//DTD SVG 1.1//EN" "http://www.w3.org/Graphics/SVG/1.1/DTD/svg11.dtd">
<svg width="1224pt" height="792pt" viewBox="0 0 1224 792" overflow="visible" version="1.1" xmlns="http://www.w3.org/2000/svg">
  <path d="M612,14.69929 C656.84,14.64209 705.4486,22.82557 752.3548,41.47107 C799.261,60.11656 844.4647,89.22407 881.6203,126.3797 C918.7759,163.5353 947.8834,208.739 966.5289,255.6452 C985.1744,302.5514 993.3579,351.1601 993.3007,396 C993.3579,440.8399 985.1744,489.4486 966.5289,536.3548 C947.8834,583.261 918.7759,628.4647 881.6203,665.6203 C844.4647,702.7759 799.261,731.8834 752.3548,750.5289 C705.4486,769.1744 656.84,777.3579 612,777.3007 C567.16,777.3579 518.5514,769.1744 471.6452,750.5289 C424.739,731.8834 379.5353,702.7759 342.3797,665.6203 C305.2241,628.4647 276.1165,583.261 257.4711,536.3548 C238.8256,489.4486 230.6421,440.8399 230.6993,396 C230.6421,351.1601 238.8256,302.5514 257.4711,255.6452 C276.1165,208.739 305.2241,163.5353 342.3797,126.3797 C379.5353,89.22407 424.739,60.11656 471.6452,41.47107 C518.5514,22.82557 567.16,14.64209 612,14.69929 z M949.4451,374.4169 C945.5939,308.0255 919.8589,240.2847 878.6563,188.0832 C849.7945,199.2167 820.1758,208.5559 790.1479,215.9913 C794.1173,230.3217 797.5139,244.8113 800.4012,259.3996 C804.9252,282.2563 808.1992,305.3551 810.3457,328.5564 C811.7568,343.8091 812.6807,359.106 813.1271,374.4169 z M847.6971,153.5503 C812.9077,119.5752 769.5952,92.78669 723.6592,76.83355 L727.5635,81.80817 C733.3622,89.38887 738.7388,97.28726 743.7432,105.4152 C749.0559,114.0437 753.9491,122.9309 758.4807,131.9935 C765.4319,145.895 771.5322,160.2093 776.915,174.792 C800.8511,168.9714 824.5114,161.871 847.6971,153.5503 z M633.5831,194.2243 C667.2763,193.1846 700.9817,189.6852 734.1699,183.781 C729.9037,172.7397 725.1642,161.8848 719.8704,151.2983 C715.9074,143.3731 711.6337,135.5983 706.9882,128.0525 C702.7451,121.1604 698.1918,114.4594 693.2746,108.0317 C688.8578,102.2583 684.1475,96.70541 679.0946,91.4789 C674.6129,86.84308 669.8616,82.46402 664.8068,78.46105 C660.3659,74.94429 655.6906,71.71781 650.7744,68.90396 C646.4406,66.42344 641.9195,64.26357 637.2367,62.529 L633.5831,61.27384 z M769.9413,374.4169 C769.5086,360.4337 768.6528,346.464 767.3638,332.5335 C765.3539,310.8107 762.291,289.1833 758.0552,267.7825 C755.2183,253.4497 751.8553,239.2186 747.8887,225.158 C710.219,232.1891 671.8872,236.2977 633.5831,237.4099 L633.5831,374.4169 z M345.3437,188.0832 C304.1411,240.2847 278.4061,308.0255 274.5549,374.4169 L410.873,374.4169 C411.3193,359.1061 412.243,343.8095 413.6541,328.5568 C415.8006,305.3555 419.0749,282.2558 423.5989,259.3992 C426.4864,244.8109 429.8829,230.3217 433.8524,215.9914 C403.8244,208.556 374.2056,199.2167 345.3437,188.0832 z M447.0847,174.7919 C452.4674,160.2084 458.5677,145.8932 465.5192,131.9925 C470.051,122.9305 474.9445,114.0446 480.257,105.4159 C485.2612,97.28786 490.6371,89.38796 496.4362,81.80756 L500.3406,76.83362 C454.4047,92.78677 411.0923,119.5752 376.3029,153.5503 C399.4886,161.871 423.1487,168.9714 447.0847,174.7919 z M590.4169,61.2737 L586.7632,62.52889 C582.0804,64.26352 577.5598,66.42374 573.2258,68.90417 C568.3095,71.71791 563.6335,74.94371 559.1927,78.46069 C554.1381,82.46391 549.3884,86.84438 544.9063,91.47977 C539.853,96.70581 535.14,102.2559 530.7238,108.03 C525.8073,114.4584 521.2588,121.1646 517.0154,128.0563 C512.3696,135.6017 508.0896,143.3696 504.1259,151.294 C499.8566,159.8295 495.9542,168.5467 492.3656,177.3906 L489.8347,183.7818 C523.0214,189.6855 556.7253,193.1846 590.4169,194.2243 z M476.1091,225.1576 C472.1422,239.2173 468.7805,253.4494 465.9444,267.7822 C461.7094,289.1841 458.646,310.8104 456.6361,332.5331 C455.3471,346.4635 454.4913,360.4336 454.0587,374.4169 L590.4169,374.4169 L590.4169,237.4099 C552.1121,236.2977 513.7795,232.1889 476.1091,225.1576 z M476.1104,566.8422 C513.7804,559.811 552.1125,555.7023 590.4169,554.5901 L590.4169,417.5831 L454.059,417.5831 C454.4917,431.5662 455.3474,445.5358 456.6362,459.4664 C458.6459,481.1895 461.7083,502.8175 465.944,524.2184 C468.7807,538.5511 472.1437,552.7819 476.1104,566.8422 z M633.5831,554.5901 C671.8881,555.7023 710.2209,559.8111 747.8915,566.8425 C751.8585,552.783 755.2196,538.5505 758.0555,524.2177 C762.2901,502.8158 765.3538,481.1898 767.3639,459.4671 C768.653,445.5367 769.5089,431.5666 769.9415,417.5831 L633.5831,417.5831 z M813.1272,417.5831 C812.6808,432.8937 811.757,448.1903 810.3459,463.4431 C808.1995,486.6446 804.9256,509.7448 800.4013,532.6011 C797.5137,547.1894 794.1166,561.6783 790.1471,576.0085 C820.1752,583.4439 849.7943,592.7832 878.6563,603.9168 C919.8589,551.7153 945.5939,483.9745 949.4451,417.5831 z M723.6611,715.1658 C769.5964,699.2126 812.9081,672.4244 847.6971,638.4497 C824.5116,630.1291 800.8516,623.0287 776.9158,617.2082 C771.5338,631.7921 765.434,646.1077 758.4808,660.007 C753.948,669.0681 749.0524,677.9523 743.7407,686.5815 C738.7372,694.7101 733.3644,702.6125 727.565,710.1932 z M633.5831,730.7263 L637.2368,729.4712 C641.9196,727.7366 646.4402,725.5762 650.7742,723.0957 C655.6905,720.2819 660.3665,717.0563 664.8073,713.5394 C669.8619,709.5362 674.6116,705.1556 679.0938,700.5202 C684.147,695.2941 688.8601,689.7441 693.2763,683.9701 C698.1929,677.5418 702.7416,670.8358 706.9851,663.9442 C711.6311,656.3988 715.9113,648.631 719.8745,640.7062 C724.1431,632.1703 728.044,623.4521 731.6324,614.6081 L734.1631,608.2178 C700.9771,602.3143 667.274,598.8154 633.5831,597.7757 z M489.8299,608.219 C494.0963,619.2603 498.836,630.1149 504.1299,640.7015 C508.0929,648.6266 512.3666,656.4014 517.0121,663.9472 C521.2552,670.8392 525.8085,677.5402 530.7256,683.968 C535.1423,689.7415 539.8525,695.2947 544.9053,700.5212 C549.3871,705.1571 554.1384,709.5359 559.1933,713.5388 C563.6342,717.0555 568.3093,720.282 573.2255,723.0959 C577.5593,725.5766 582.0806,727.7366 586.7634,729.4711 L590.4169,730.7261 L590.4169,597.7757 C556.7236,598.8154 523.0182,602.3148 489.8299,608.219 z M447.0844,617.2081 C423.1486,623.0287 399.4885,630.1291 376.3029,638.4497 C411.0924,672.4249 454.405,699.2134 500.3412,715.1666 L496.4366,710.1918 C490.6377,702.6112 485.2609,694.713 480.2565,686.5851 C474.9438,677.9567 470.0507,669.0695 465.5192,660.0068 C458.5679,646.1052 452.4673,631.791 447.0844,617.2081 z M345.3437,603.9168 C374.2055,592.7833 403.8243,583.444 433.8523,576.0087 C429.8832,561.6779 426.4871,547.1877 423.5996,532.5994 C419.0757,509.7426 415.8005,486.6448 413.6537,463.4438 C412.2425,448.1913 411.3189,432.8942 410.8727,417.5831 L274.5549,417.5831 C278.4061,483.9745 304.1411,551.7153 345.3437,603.9168 z" stroke="Black" stroke-width="0" fill="#000000" fill-opacity="1" />
</svg>